<svg width="139" height="139" viewBox="0 0 139 139" fill="none" xmlns="http://www.w3.org/2000/svg">
<g id="Group 1171274978">
<path id="Vector" d="M104.242 104.241C123.432 85.051 123.432 53.9373 104.242 34.7469C85.0512 15.5566 53.9375 15.5566 34.7472 34.7469C15.5568 53.9373 15.5568 85.051 34.7472 104.241C53.9375 123.432 85.0512 123.432 104.242 104.241Z" fill="white"/>
<g id="Group 1171274981">
<path id="Vector_2" d="M69.4885 121.331C62.4945 121.331 55.7052 119.954 49.314 117.259C43.1388 114.644 37.6004 110.913 32.8354 106.148C28.0704 101.383 24.3403 95.8451 21.7246 89.6699C19.018 83.2786 17.6533 76.4894 17.6533 69.4954C17.6533 62.5014 19.0294 55.7121 21.7246 49.3208C24.3403 43.1456 28.0704 37.6073 32.8354 32.8423C37.6004 28.0772 43.1388 24.3471 49.314 21.7315C55.7052 19.0248 62.4945 17.6602 69.4885 17.6602C76.4825 17.6602 83.2718 19.0362 89.6631 21.7315C95.8383 24.3471 101.377 28.0772 106.142 32.8423C110.907 37.6073 114.637 43.1456 117.252 49.3208C119.959 55.7121 121.324 62.5014 121.324 69.4954C121.324 76.4894 119.948 83.2786 117.252 89.6699C114.637 95.8451 110.907 101.383 106.142 106.148C101.377 110.913 95.8383 114.644 89.6631 117.259C83.2718 119.966 76.4825 121.331 69.4885 121.331ZM69.4885 18.5586C41.4102 18.5586 18.5631 41.4056 18.5631 69.484C18.5631 97.5623 41.4102 120.409 69.4885 120.409C97.5669 120.409 120.414 97.5623 120.414 69.484C120.414 41.4056 97.5669 18.5586 69.4885 18.5586Z" fill="white"/>
<path id="Vector_3" d="M97.7832 69.4956C97.7832 85.1212 85.1144 97.79 69.4888 97.79C53.8631 97.79 41.1943 85.1212 41.1943 69.4956C41.1943 53.87 53.8631 41.2012 69.4888 41.2012C85.1144 41.2012 97.7832 53.87 97.7832 69.4956Z" fill="#151519"/>
<path id="Vector_4" d="M69.4886 96.1972C62.3581 96.1972 55.6484 93.4224 50.5991 88.373C45.5498 83.3237 42.7749 76.6254 42.7749 69.4949C42.7749 62.3645 45.5498 55.6548 50.5991 50.6054C55.6484 45.5561 62.3467 42.7812 69.4886 42.7812C76.6304 42.7812 83.3287 45.5561 88.3667 50.6054C93.416 55.6548 96.1909 62.3531 96.1909 69.4949C96.1909 76.6368 93.416 83.3351 88.3667 88.373C83.3174 93.4224 76.619 96.1972 69.4886 96.1972ZM69.4886 43.691C55.2618 43.691 43.6961 55.2681 43.6961 69.4835C43.6961 83.699 55.2731 95.2761 69.4886 95.2761C83.704 95.2761 95.2811 83.699 95.2811 69.4835C95.2811 55.2681 83.704 43.691 69.4886 43.691Z" fill="white"/>
<g id="Group">
<g id="Group_2">
<path id="Vector_5" d="M42.6276 47.7379C42.5707 48.2383 42.2636 49.1141 41.6267 50.0922C40.1595 52.3328 37.6346 53.0948 35.0301 51.3888C32.5393 49.7624 31.9479 46.9645 33.5629 44.4965C34.2112 43.507 34.8367 43.0179 35.1552 42.8359L35.8376 43.6321C35.394 43.8937 34.8936 44.36 34.4614 45.0196C33.2445 46.8849 33.6198 48.9094 35.7125 50.2742C37.6574 51.548 39.6477 51.2409 40.9102 49.3075C41.3196 48.6819 41.604 47.954 41.6722 47.4081L42.6276 47.7265V47.7379Z" fill="#151519"/>
<path id="Vector_6" d="M46.3008 38.6295L43.4915 41.0407L45.7207 43.6452L48.8484 40.9611L49.5195 41.7458L45.4591 45.2261L39.272 38.004L43.1731 34.6602L43.8441 35.4449L40.8756 37.9926L42.8319 40.2787L45.6411 37.8675L46.3008 38.6409V38.6295Z" fill="#151519"/>
<path id="Vector_7" d="M48.8018 31.2026C49.3136 30.8272 50.087 30.395 50.8604 30.0311C52.0546 29.4852 52.919 29.3487 53.681 29.5875C54.2952 29.7695 54.807 30.2472 55.114 30.9182C55.6372 32.0556 55.2733 33.1474 54.4999 33.8753L54.5226 33.9094C55.296 33.8298 55.9784 34.262 56.5926 35.0695C57.4342 36.15 58.0257 36.8779 58.3555 37.1281L57.2068 37.6627C56.9565 37.4807 56.422 36.8324 55.6827 35.8657C54.8752 34.7966 54.2042 34.5577 53.1805 34.9899L52.1342 35.479L53.863 39.2209L52.7484 39.7327L48.8131 31.2139L48.8018 31.2026ZM51.7361 34.6146L52.8735 34.0914C54.0677 33.5455 54.5226 32.5333 54.0677 31.5551C53.5559 30.4405 52.5209 30.3268 51.338 30.8614C50.8035 31.1116 50.4395 31.339 50.2803 31.4755L51.7361 34.626V34.6146Z" fill="#151519"/>
<path id="Vector_8" d="M62.4834 27.5632L59.6172 27.9954L59.458 26.9604L66.4186 25.9141L66.5778 26.949L63.7003 27.3812L64.9628 35.7521L63.7344 35.9341L62.472 27.5632H62.4834Z" fill="#151519"/>
<path id="Vector_9" d="M73.1051 26.0835L72.4569 35.5804L71.2285 35.5008L71.8768 26.0039L73.1051 26.0835Z" fill="#151519"/>
<path id="Vector_10" d="M79.5643 27.0527L84.4777 28.4972L84.1819 29.4867L80.4401 28.3834L79.5416 31.4202L82.9991 32.4324L82.7148 33.4105L79.2572 32.3983L78.0403 36.5268L76.8574 36.1743L79.5416 27.0527H79.5643Z" fill="#151519"/>
<path id="Vector_11" d="M91.1304 31.6793L86.5242 40.0047L85.4551 39.4133L90.0613 31.0879L91.1304 31.6793Z" fill="#151519"/>
<path id="Vector_12" d="M96.9196 42.3253L94.1445 39.88L91.8698 42.4504L94.9634 45.1801L94.281 45.9535L90.2661 42.4163L96.567 35.2852L100.423 38.6858L99.7402 39.4592L96.8059 36.8661L94.8155 39.118L97.5906 41.5633L96.9196 42.3253Z" fill="#151519"/>
<path id="Vector_13" d="M104.778 43.8711C105.267 44.4511 105.801 45.1677 106.302 45.9979C107.223 47.4992 107.519 48.7958 107.291 49.9104C107.064 51.0364 106.381 52.0373 105.073 52.8334C103.743 53.6409 102.412 53.8911 101.207 53.584C99.9895 53.2883 98.8067 52.2875 97.8513 50.7066C97.3964 49.9559 97.0552 49.3076 96.7822 48.7389L104.778 43.8711ZM98.238 49.2962C98.3518 49.592 98.5792 49.9787 98.8295 50.3995C100.194 52.64 102.196 53.095 104.391 51.7643C106.313 50.6042 106.871 48.7844 105.517 46.5666C105.187 46.0207 104.892 45.6454 104.664 45.4065L98.2494 49.319L98.238 49.2962Z" fill="#151519"/>
</g>
<g id="Group_3">
<path id="Vector_14" d="M36.4861 97.4486C36.0425 97.2097 35.326 96.6069 34.6549 95.6629C33.0968 93.4792 33.3015 90.8519 35.8378 89.0436C38.2603 87.3148 41.081 87.7811 42.787 90.1809C43.4808 91.1477 43.7082 91.8983 43.7537 92.2623L42.7642 92.6035C42.6732 92.0917 42.4344 91.4547 41.9681 90.8065C40.6715 88.9867 38.647 88.6114 36.6226 90.0672C34.7232 91.4206 34.291 93.3769 35.6331 95.2649C36.0653 95.879 36.6339 96.4022 37.123 96.6638L36.4747 97.4372L36.4861 97.4486Z" fill="#151519"/>
<path id="Vector_15" d="M49.781 102.918C47.8134 105.534 45.1747 105.727 43.2412 104.26C41.2395 102.748 41.0007 100.132 42.7294 97.8343C44.5492 95.4231 47.2333 94.9682 49.2692 96.5036C51.3392 98.0618 51.487 100.666 49.7924 102.918H49.781ZM43.7985 98.6077C42.5702 100.234 42.3655 102.35 43.9009 103.51C45.4591 104.681 47.4153 103.908 48.7119 102.19C49.8492 100.678 50.2473 98.5053 48.6095 97.277C46.9831 96.0487 45.0496 96.9472 43.7872 98.6077H43.7985Z" fill="#151519"/>
<path id="Vector_16" d="M61.6543 108.093C61.9614 106.796 62.3368 105.25 62.678 104.112H62.6325C62.0069 105.079 61.2904 106.103 60.46 107.229L57.5482 111.187L56.6496 110.925L56.4562 106.148C56.3994 104.738 56.388 103.452 56.4562 102.292H56.4335C56.0695 103.418 55.5577 104.92 55.0686 106.273L53.6695 110.118L52.5435 109.788L55.8648 100.848L57.3662 101.291L57.6278 106.159C57.6733 107.399 57.6961 108.491 57.6392 109.504H57.6847C58.1852 108.662 58.8107 107.752 59.5501 106.728L62.4733 102.793L63.9747 103.236L61.8591 112.529L60.7103 112.188L61.6657 108.116L61.6543 108.093Z" fill="#151519"/>
<path id="Vector_17" d="M68.2033 103.577C68.7947 103.452 69.5681 103.338 70.5462 103.304C71.7632 103.259 72.6617 103.498 73.2417 103.987C73.7763 104.419 74.1175 105.101 74.1516 105.943C74.1857 106.807 73.9583 107.49 73.5033 108.002C72.8778 108.718 71.8428 109.116 70.6372 109.162C70.2732 109.173 69.932 109.173 69.6477 109.116L69.7956 112.926L68.5672 112.972L68.1919 103.577H68.2033ZM69.6136 108.115C69.8865 108.172 70.2277 108.195 70.6372 108.172C72.1157 108.115 72.9915 107.353 72.9346 106.045C72.8891 104.794 71.9679 104.214 70.6144 104.271C70.0799 104.294 69.6704 104.351 69.4657 104.419L69.6136 108.115Z" fill="#151519"/>
<path id="Vector_18" d="M79.8378 108.617L79.7809 111.767L78.564 112.143L78.8369 102.1L80.2472 101.656L86.1614 109.788L84.9104 110.175L83.0565 107.616L79.8378 108.617ZM82.5333 106.774L80.8273 104.431C80.4406 103.897 80.1449 103.408 79.8378 102.919H79.815C79.8492 103.51 79.8719 104.102 79.8719 104.716L79.7923 107.616L82.5333 106.763V106.774Z" fill="#151519"/>
<path id="Vector_19" d="M91.6766 106.98L86.1714 99.223L87.2633 98.4495L92.541 100.611C93.7581 101.111 94.7932 101.612 95.7259 102.146V102.123C94.9183 101.157 94.2244 100.224 93.36 99.0183L91.051 95.7766L91.9951 95.1055L97.5003 102.863L96.4879 103.579L91.233 101.396C90.0842 100.918 88.9354 100.395 87.9458 99.8372L87.923 99.8713C88.6737 100.804 89.3562 101.725 90.2775 103.011L92.632 106.321L91.688 106.992L91.6766 106.98Z" fill="#151519"/>
<path id="Vector_20" d="M103.527 96.448L100.331 93.9914L94.1553 93.036L95.0083 91.9328L97.9085 92.4673C98.7047 92.6152 99.3302 92.7403 100.035 92.9109L100.058 92.8881C99.7283 92.2967 99.4326 91.6598 99.0914 90.9319L97.8403 88.2478L98.6933 87.1445L101.082 93.0019L104.289 95.4699L103.527 96.4594V96.448Z" fill="#151519"/>
</g>
</g>
<g id="Group_4">
<g id="Group_5">
<path id="Vector_21" d="M109.974 68.252L110.722 70.5845H113.172L111.194 72.0213L111.952 74.344L109.974 72.9071L107.995 74.344L108.743 72.0213L106.765 70.5845H109.216L109.974 68.252Z" fill="#151519"/>
<path id="Vector_22" d="M106.332 79.9121L107.08 82.2446H109.531L107.553 83.6815L108.311 86.0042L106.332 84.5673L104.354 86.0042L105.102 83.6815L103.124 82.2446H105.575L106.332 79.9121Z" fill="#151519"/>
<path id="Vector_23" d="M107.12 56.5898L107.868 58.9223H110.318L108.34 60.3592L109.098 62.6819L107.12 61.245L105.141 62.6819L105.889 60.3592L103.911 58.9223H106.362L107.12 56.5898Z" fill="#151519"/>
</g>
<g id="Group_6">
<path id="Vector_24" d="M29.878 66.2676L29.13 68.6001H26.6794L28.6576 70.037L27.8998 72.3596L29.878 70.9227L31.8562 72.3596L31.1082 70.037L33.0864 68.6001H30.6358L29.878 66.2676Z" fill="#151519"/>
<path id="Vector_25" d="M33.5191 77.9277L32.7711 80.2602H30.3206L32.2987 81.6971L31.5409 84.0198L33.5191 82.5829L35.4973 84.0198L34.7493 81.6971L36.7275 80.2602H34.2769L33.5191 77.9277Z" fill="#151519"/>
<path id="Vector_26" d="M32.732 54.6055L31.984 56.938H29.5334L31.5116 58.3749L30.7538 60.6975L32.732 59.2606L34.7102 60.6975L33.9622 58.3749L35.9404 56.938H33.4898L32.732 54.6055Z" fill="#151519"/>
</g>
</g>
<g id="Group_7">
<g id="Group_8">
<path id="Vector_27" d="M81.2202 71.5304C79.9926 71.4891 78.8371 71.2415 77.7126 70.7566C76.0311 70.0139 74.9479 68.7759 74.494 66.9912C74.071 65.3303 74.1329 63.6693 74.5971 62.0497C75.0613 60.4506 76.0724 59.2746 77.6507 58.635C80.0545 57.6652 82.4582 57.6549 84.8412 58.6865C86.6569 59.4706 87.6782 60.8736 88.029 62.8028C88.2662 64.082 88.2869 65.3509 88.029 66.6301C87.5028 69.2298 85.9038 70.736 83.335 71.2518C82.6335 71.3859 81.9217 71.4478 81.2099 71.5407L81.2202 71.5304ZM79.0228 64.474C79.0538 65.093 79.0538 65.681 79.126 66.2587C79.291 67.6514 79.8172 68.1466 81.1686 68.2395C82.2931 68.3117 83.2422 67.7959 83.3041 66.8777C83.4073 65.4953 83.4176 64.082 83.3041 62.6996C83.2319 61.7195 82.6129 61.2553 81.6122 61.1831C81.1892 61.1521 80.756 61.2347 80.333 61.3275C79.6831 61.4719 79.291 61.9259 79.1982 62.5758C79.1054 63.2154 79.0744 63.8653 79.0125 64.4843L79.0228 64.474Z" fill="white"/>
<path id="Vector_28" d="M64.4465 70.2927C64.4259 70.6332 64.4053 70.8601 64.3949 71.1387H61.5889V66.4035C62.4142 66.4035 63.2086 66.4035 64.0029 66.4035C64.0958 66.4035 64.2092 66.486 64.2711 66.5685C65.2821 68.0541 66.7574 68.4874 68.4493 68.4152C68.7484 68.4048 69.0579 68.3636 69.3261 68.2604C69.5222 68.1882 69.6666 68.0025 69.8316 67.8581C69.6666 67.693 69.5428 67.4351 69.3468 67.3629C68.5937 67.0844 67.82 66.878 67.0669 66.6304C65.9114 66.2487 64.7044 65.9805 63.6315 65.4338C61.0731 64.1236 61.0112 61.5548 62.0531 59.8217C62.7031 58.7591 63.776 58.2639 64.9623 58.0679C66.8193 57.7584 68.6246 57.8925 70.2856 58.8726C70.3681 58.9241 70.4609 58.9448 70.6054 59.0067C70.6363 58.7385 70.657 58.5218 70.6879 58.2845H73.3908V62.7102C72.5552 62.7102 71.7195 62.7102 70.8942 62.7102C70.7911 62.7102 70.6673 62.5968 70.5847 62.4936C69.4293 61.1422 67.8922 60.7708 66.2209 60.8533C65.9527 60.8636 65.5504 61.1318 65.4678 61.3691C65.344 61.7611 65.7773 61.9159 66.0868 62.0087C67.5414 62.442 68.996 62.8444 70.4506 63.2776C72.0187 63.7419 73.1948 64.6703 73.7003 66.2591C74.3296 68.2398 73.2257 70.334 71.214 71.0355C69.0992 71.768 67.0462 71.5307 65.0552 70.5713C64.8798 70.4887 64.7044 70.4062 64.4568 70.2824L64.4465 70.2927Z" fill="white"/>
<path id="Vector_29" d="M60.7026 61.2561H58.8455C58.8248 61.4521 58.8042 61.6172 58.8042 61.7823C58.8042 63.7013 58.8042 65.6203 58.7939 67.5392C58.7939 67.9313 58.8971 68.1067 59.2994 68.0551C59.3201 68.0551 59.3304 68.0551 59.351 68.0551C59.7947 68.0861 60.4034 67.9519 60.6304 68.1892C60.8676 68.4368 60.7232 69.0352 60.7335 69.4789C60.7335 70.0257 60.7335 70.5725 60.7335 71.1606H52.4282V68.0757H54.275V61.2561H52.4282V58.1094H60.7026V61.2561Z" fill="white"/>
</g>
<g id="Group_9">
<path id="Vector_30" d="M52.0677 79.3407C52.2225 79.3613 52.4083 79.3407 52.6559 79.32C53.079 79.2581 53.4711 79.093 53.7807 78.8041C54.1315 78.4842 54.3895 78.0095 54.4927 77.3801H54.4721C54.1728 77.7412 53.7497 77.9579 53.2131 77.9579C52.2432 77.9579 51.624 77.2356 51.624 76.3172C51.624 75.3988 52.3567 74.4082 53.4608 74.4082C54.5649 74.4082 55.2357 75.2956 55.2357 76.6681C55.2357 78.0405 54.8435 78.6699 54.307 79.1859C53.8942 79.5883 53.3267 79.836 52.7488 79.9082C52.4805 79.9495 52.2535 79.9598 52.0781 79.9495V79.351L52.0677 79.3407ZM52.3257 76.2553C52.3257 76.926 52.7282 77.3904 53.3576 77.3904C53.9871 77.3904 54.2244 77.1531 54.4102 76.8332C54.4514 76.7713 54.4721 76.6887 54.4721 76.5649C54.4721 75.6465 54.1315 74.9448 53.3783 74.9448C52.625 74.9448 52.3257 75.4917 52.3257 76.245V76.2553Z" fill="white"/>
<path id="Vector_31" d="M59.4444 77.1123C59.4444 78.9388 58.7633 79.9397 57.5766 79.9397C56.3899 79.9397 55.8224 78.9594 55.8018 77.1846C55.8018 75.3891 56.5757 74.3984 57.6695 74.3984C58.7633 74.3984 59.4444 75.4097 59.4444 77.1123ZM56.5241 77.1949C56.5241 78.5879 56.9575 79.3825 57.6179 79.3825C58.2783 79.3825 58.7117 78.5157 58.7117 77.1433C58.7117 75.7709 58.3712 74.9557 57.6179 74.9557C56.8646 74.9557 56.5241 75.7296 56.5241 77.1949Z" fill="white"/>
<path id="Vector_32" d="M63.6743 77.1123C63.6743 78.9388 62.9933 79.9397 61.8066 79.9397C60.6199 79.9397 60.0524 78.9594 60.0317 77.1846C60.0317 75.3891 60.8057 74.3984 61.8995 74.3984C62.9933 74.3984 63.6743 75.4097 63.6743 77.1123ZM60.7644 77.1949C60.7644 78.5879 61.1978 79.3825 61.8582 79.3825C62.5186 79.3825 62.952 78.5157 62.952 77.1433C62.952 75.7709 62.6115 74.9557 61.8582 74.9557C61.1049 74.9557 60.7644 75.7296 60.7644 77.1949Z" fill="white"/>
<path id="Vector_33" d="M65.9219 75.1635H65.9013L64.9726 75.6691L64.8281 75.1119L66.0045 74.4824H66.6236V79.8483H65.9219V75.1635Z" fill="white"/>
<path id="Vector_34" d="M70.4924 77.3496V77.8862H68.4492V77.3496H70.4924Z" fill="white"/>
<path id="Vector_35" d="M71.1104 79.8577V79.414L71.6779 78.8568C73.0503 77.5566 73.6695 76.8549 73.6798 76.05C73.6798 75.5031 73.4115 74.9975 72.6169 74.9975C71.8224 74.9975 71.7295 75.2451 71.4818 75.4515L71.2548 74.9356C71.6263 74.626 72.1526 74.3887 72.7717 74.3887C73.9274 74.3887 74.4124 75.1832 74.4124 75.9468C74.4124 76.7104 73.6901 77.7423 72.5653 78.8258L72.1319 79.218V79.2386H74.5466V79.8371H71.1207L71.1104 79.8577Z" fill="white"/>
<path id="Vector_36" d="M78.9107 77.1123C78.9107 78.9388 78.2296 79.9397 77.0429 79.9397C75.8562 79.9397 75.2887 78.9594 75.2681 77.1846C75.2681 75.3891 76.042 74.3984 77.1358 74.3984C78.2296 74.3984 78.9107 75.4097 78.9107 77.1123ZM75.9904 77.1949C75.9904 78.5879 76.4238 79.3825 77.0842 79.3825C77.7446 79.3825 78.178 78.5157 78.178 77.1433C78.178 75.7709 77.8375 74.9557 77.0842 74.9557C76.3309 74.9557 75.9904 75.7296 75.9904 77.1949Z" fill="white"/>
<path id="Vector_37" d="M81.149 75.1635H81.1284L80.1996 75.6691L80.0552 75.1119L81.2315 74.4824H81.8507V79.8483H81.149V75.1635Z" fill="white"/>
<path id="Vector_38" d="M87.0087 75.1005H84.9656L84.7592 76.4832C84.883 76.4626 84.9965 76.4522 85.1926 76.4522C85.6053 76.4522 86.0181 76.5451 86.3483 76.7412C86.7714 76.9785 87.1119 77.4429 87.1119 78.1239C87.1119 79.1765 86.2761 79.9607 85.11 79.9607C83.944 79.9607 84.0265 79.7956 83.7686 79.6305L83.9543 79.0733C84.1813 79.2074 84.6147 79.3725 85.0997 79.3725C85.5847 79.3725 86.3689 78.9288 86.3689 78.2065C86.3689 77.5151 85.8943 77.0198 84.8211 77.0198C83.7479 77.0198 84.2742 77.0507 84.0781 77.0817L84.429 74.502H86.9984V75.1108L87.0087 75.1005Z" fill="white"/>
</g>
</g>
</g>
</g>
</svg>
